<svg width="47" height="47" viewBox="0 0 47 47" fill="none" xmlns="http://www.w3.org/2000/svg">
<path d="M14.0714 17.3386C13.6792 17.1398 13.2178 17.3336 13.0401 17.7689L9.39822 26.6775C9.22058 27.1124 9.39404 27.625 9.78585 27.8221C10.1684 28.0183 10.639 27.8314 10.8171 27.3919L14.459 18.4832C14.6367 18.0484 14.4632 17.5358 14.0714 17.3386Z" fill="#7A3DE2"/>
<path d="M16.6337 21.4257C13.0818 19.9543 11.9103 26.111 15.6706 26.382C18.1498 26.3902 18.8987 22.5519 16.6337 21.4257ZM15.9421 24.5973C14.9774 24.98 14.4417 23.3949 15.3936 22.9785C16.3568 22.5948 16.8944 24.1786 15.9421 24.5973Z" fill="#7A3DE2"/>
<path d="M10.318 22.4352C11.2082 20.4219 9.2446 18.0763 7.36758 18.9351C6.16139 19.4384 5.54857 20.9368 6.002 22.2756C6.67074 24.4098 9.52329 24.514 10.318 22.4352ZM8.8991 21.7204C8.47553 22.7484 7.06207 22.0365 7.48027 21.006C7.9017 19.9807 9.31592 20.6853 8.8991 21.7204Z" fill="#7A3DE2"/>
<path d="M21.3209 23.2787L18.5805 15.1845C17.9761 13.3994 16.1764 12.4938 14.5673 13.163L4.35785 17.4214C2.77783 18.0387 1.91485 20.1488 2.53656 21.8753C2.53651 21.8753 5.2769 29.9695 5.2769 29.9695C5.88173 31.7546 7.68176 32.6611 9.29008 31.9911L12.4858 30.6582L14.6875 32.9242C14.9042 33.1477 15.2174 33.2141 15.4909 33.0994C15.7675 32.9841 15.9611 32.7059 15.9919 32.3799L16.3042 29.0656L19.4996 27.7327C21.0799 27.1155 21.9424 25.0051 21.3209 23.2787ZM19.8225 25.2095C19.6506 25.6305 19.3413 25.9513 18.9518 26.1139L15.3057 27.6347C15.0291 27.75 14.8355 28.0282 14.8047 28.3541L14.6042 30.4804L13.1918 29.0267C12.9754 28.8042 12.6634 28.7358 12.3884 28.8515L8.7423 30.3723C7.93777 30.7067 7.03812 30.2541 6.73533 29.3615L3.99495 21.2673C3.68469 20.4042 4.11558 19.3489 4.90567 19.0402C4.90562 19.0402 15.1151 14.7817 15.1151 14.7817C15.9204 14.449 16.8197 14.8999 17.1221 15.7925L19.8624 23.8867C20.0089 24.3191 19.9944 24.789 19.8225 25.2095Z" fill="#7A3DE2"/>
<path d="M3.89526 35.4235H16.0562C16.4864 35.4235 16.8352 35.0363 16.8352 34.5588C16.8352 34.0812 16.4864 33.6941 16.0562 33.6941H3.89526C2.60648 33.6941 1.55811 32.5305 1.55811 31.1V12.0768H38.9526V14.2732C38.9688 15.4069 40.4935 15.4117 40.5107 14.2731C40.5107 14.2732 40.5107 6.8887 40.5107 6.8887C40.5107 4.50489 38.7632 2.56525 36.6155 2.56525H30.3831C30.3019 -0.856299 25.7889 -0.853869 25.7087 2.56525H22.5925C22.5114 -0.856299 17.9984 -0.853869 17.9182 2.56525H14.802C14.7209 -0.856299 10.2079 -0.853869 10.1277 2.56525H3.89526C1.74754 2.56525 0 4.50489 0 6.8887V31.1C0 33.4838 1.74754 35.4235 3.89526 35.4235ZM28.0459 1.70056C28.4754 1.70056 28.825 2.08857 28.825 2.56525H27.2668C27.2668 2.08857 27.6164 1.70056 28.0459 1.70056ZM20.2554 1.70056C20.6848 1.70056 21.0344 2.08857 21.0344 2.56525H19.4763C19.4763 2.08857 19.8259 1.70056 20.2554 1.70056ZM12.4648 1.70056C12.8943 1.70056 13.2439 2.08857 13.2439 2.56525H11.6858C11.6858 2.08857 12.0354 1.70056 12.4648 1.70056ZM1.55811 6.8887C1.55811 5.45825 2.60648 4.29463 3.89526 4.29463H13.2439V6.02401C13.2439 6.50069 12.8943 6.8887 12.4648 6.8887C12.0354 6.8887 11.6858 6.50069 11.6858 6.02401C11.6858 5.54649 11.337 5.15932 10.9067 5.15932C10.4765 5.15932 10.1277 5.54649 10.1277 6.02401C10.1277 7.45447 11.1761 8.61808 12.4648 8.61808C13.7536 8.61808 14.802 7.45447 14.802 6.02401V4.29463H21.0344V6.02401C21.0344 6.50069 20.6848 6.8887 20.2554 6.8887C19.8259 6.8887 19.4763 6.50069 19.4763 6.02401C19.4763 5.54649 19.1275 5.15932 18.6973 5.15932C18.267 5.15932 17.9182 5.54649 17.9182 6.02401C17.9182 7.45447 18.9666 8.61808 20.2554 8.61808C21.5442 8.61808 22.5925 7.45447 22.5925 6.02401V4.29463H28.825V6.02401C28.825 6.50069 28.4754 6.8887 28.0459 6.8887C27.6164 6.8887 27.2668 6.50069 27.2668 6.02401C27.2668 5.54649 26.918 5.15932 26.4878 5.15932C26.0576 5.15932 25.7087 5.54649 25.7087 6.02401C25.7087 7.45447 26.7571 8.61808 28.0459 8.61808C29.3347 8.61808 30.3831 7.45447 30.3831 6.02401V4.29463H36.6155C37.9043 4.29463 38.9526 5.45825 38.9526 6.8887V10.3475H1.55811V6.8887Z" fill="#7A3DE2"/>
<path d="M21.1603 18.9834C20.4673 19.8157 21.5938 20.9868 22.2954 20.1681C30.41 10.5026 45.2092 17.0254 45.185 30.2376C44.4577 49.7383 19.4222 49.7335 18.6972 30.2374C18.6839 29.1016 17.1537 29.1019 17.1391 30.2375C17.1391 39.2964 23.7793 46.6666 31.9411 46.6666C51.5767 45.7646 51.5736 14.7083 31.9411 13.8083C27.8747 13.8083 23.9452 15.6948 21.1603 18.9834Z" fill="#7A3DE2"/>
<path d="M26.0333 32.7988C25.7077 32.8604 25.4528 33.1433 25.3973 33.5047L24.9408 36.4568C24.8376 37.0241 25.3308 37.5689 25.8401 37.4553C25.8401 37.4553 28.4998 36.9491 28.4998 36.9491C28.8254 36.887 29.0803 36.6041 29.1362 36.2427L29.5504 33.5617L30.621 32.3732C33.6006 34.408 35.9507 29.2637 32.7199 27.8008V25.8898L34.135 23.6689C34.3256 23.3699 34.3256 22.9697 34.135 22.6707L32.5769 20.2249C32.2847 19.7664 31.597 19.7664 31.3048 20.2249L29.7467 22.6707C29.5562 22.9697 29.5562 23.3699 29.7467 23.6689L31.1618 25.8898V27.8008C30.05 28.2114 29.3247 29.6541 29.7039 30.9456L28.4491 32.3386L26.0333 32.7988ZM27.6934 35.3477L26.6625 35.544L26.8398 34.3998L27.8706 34.203L27.6934 35.3477ZM31.9409 22.2215L32.5449 23.1698L31.9409 24.1177L31.3368 23.1698L31.9409 22.2215ZM31.9409 29.3708C33.391 29.5235 32.5495 31.8784 31.4023 30.8556C31.3651 30.6328 31.1497 30.4745 31.1618 30.2355C31.1618 29.7588 31.5114 29.3708 31.9409 29.3708Z" fill="#7A3DE2"/>
<path d="M32.72 18.1316C33.7436 18.1124 33.7443 16.4214 32.72 16.4022H31.1619C30.1384 16.4214 30.1377 18.1123 31.162 18.1316H32.72Z" fill="#7A3DE2"/>
<path d="M32.72 42.3442H31.1619C30.1384 42.3634 30.1377 44.0543 31.162 44.0736H32.72C33.7436 44.0544 33.7443 42.3635 32.72 42.3442Z" fill="#7A3DE2"/>
<path d="M44.4061 31.1023V29.3729C44.3888 28.2367 42.8653 28.2362 42.848 29.3729V31.1023C42.8653 32.2383 44.3888 32.2391 44.4061 31.1023Z" fill="#7A3DE2"/>
<path d="M19.4764 29.3729V31.1023C19.4938 32.2385 21.0172 32.2389 21.0345 31.1022V29.3729C21.0173 28.2368 19.4938 28.2361 19.4764 29.3729Z" fill="#7A3DE2"/>
</svg>
