<svg width="47" height="35" viewBox="0 0 47 35" fill="none" xmlns="http://www.w3.org/2000/svg">
<path d="M8.27955 14.0023C6.61912 14.0023 5.2688 15.572 5.2688 17.5023C5.2688 19.4325 6.61912 21.0023 8.27955 21.0023C9.93998 21.0023 11.2903 19.4325 11.2903 17.5023C11.2903 15.572 9.93998 14.0023 8.27955 14.0023ZM8.27955 19.2523C7.44934 19.2523 6.77418 18.4674 6.77418 17.5023C6.77418 16.5371 7.44934 15.7523 8.27955 15.7523C9.10977 15.7523 9.78493 16.5371 9.78493 17.5023C9.78493 18.4674 9.10977 19.2523 8.27955 19.2523Z" fill="#7A3DE2"/>
<path d="M31.6129 0C24.3954 0 18.3137 5.84762 16.8933 14H14.3011V13.125C14.3011 9.7475 11.9376 7 9.03226 7C6.59731 7 4.53269 8.89175 3.93806 11.578C1.62731 12.2692 0 14.6694 0 17.5C0 20.3306 1.62731 22.7308 3.93806 23.422C4.53269 26.1083 6.59731 28 9.03226 28C11.9376 28 14.3011 25.2525 14.3011 21.875V21H16.8933C18.3137 29.1524 24.3954 35 31.6129 35C39.9135 35 46.6667 27.1495 46.6667 17.5C46.6667 7.8505 39.9135 0 31.6129 0ZM12.7957 19.25V21.875C12.7957 24.2874 11.1074 26.25 9.03226 26.25C7.16559 26.25 5.60376 24.6934 5.31849 22.5479L5.23419 21.9144L4.68925 21.8164C2.84441 21.4856 1.50538 19.67 1.50538 17.5C1.50538 15.33 2.84441 13.5144 4.69 13.1827L5.23495 13.0848L5.31925 12.4513C5.60376 10.3066 7.16559 8.75 9.03226 8.75C11.1074 8.75 12.7957 10.7126 12.7957 13.125V15.75H30.8602V19.25H12.7957ZM31.6129 33.25C25.2211 33.25 19.8175 28.1549 18.4288 21H30.8602V24.5H32.3656V21V18.375H32.7419C35.0248 18.375 36.8817 20.5336 36.8817 23.1875C36.8817 25.8414 35.0248 28 32.7419 28H30.4839C28.201 28 26.3441 25.8414 26.3441 23.1875H24.8387C24.8387 26.8065 27.3708 29.75 30.4839 29.75H30.8602V31.5H32.3656V29.75H32.7419C35.8551 29.75 38.3871 26.8065 38.3871 23.1875C38.3871 19.5685 35.8551 16.625 32.7419 16.625H32.3656V14V10.5H30.8602V14H26.8062C26.5089 13.3254 26.3441 12.579 26.3441 11.8125C26.3441 9.15862 28.201 7 30.4839 7H32.7419C35.0248 7 36.8817 9.15862 36.8817 11.8125H38.3871C38.3871 8.1935 35.8551 5.25 32.7419 5.25H32.3656V3.5H30.8602V5.25H30.4839C27.3708 5.25 24.8387 8.1935 24.8387 11.8125C24.8387 12.5641 24.9614 13.3 25.1744 14H18.4288C19.8175 6.84513 25.2211 1.75 31.6129 1.75C39.0833 1.75 45.1613 8.81563 45.1613 17.5C45.1613 26.1844 39.0833 33.25 31.6129 33.25Z" fill="#7A3DE2"/>
</svg>
