<svg width="47" height="47" viewBox="0 0 47 47" fill="none" xmlns="http://www.w3.org/2000/svg">
<path fill-rule="evenodd" clip-rule="evenodd" d="M39.4017 46.1475C35.6825 46.1475 32.6561 43.1208 32.6561 39.4014C32.6561 35.6819 35.6826 32.6552 39.4017 32.6552C43.1209 32.6552 46.1455 35.6819 46.1455 39.4014C46.1455 43.1208 43.119 46.1475 39.4017 46.1475ZM39.4017 33.7507C36.286 33.7507 33.7501 36.2851 33.7501 39.4028C33.7501 42.5188 36.2843 45.0548 39.4017 45.0548C42.5175 45.0548 45.0515 42.5204 45.0515 39.4028C45.0515 36.2867 42.5173 33.7507 39.4017 33.7507Z" fill="#7A3DE2"/>
<path fill-rule="evenodd" clip-rule="evenodd" d="M37.6366 42.6679C37.5235 42.6679 37.4105 42.6332 37.3157 42.5639C37.1462 42.44 37.0623 42.2321 37.0988 42.0261L37.3977 40.3432L36.1671 39.158C36.0158 39.0121 35.9611 38.7934 36.0267 38.5946C36.0906 38.3959 36.2637 38.2518 36.4716 38.2227L38.1635 37.9875L38.911 36.4504C39.0021 36.2626 39.1936 36.1423 39.4032 36.1423C39.6129 36.1423 39.8043 36.2626 39.8955 36.4504L40.643 37.9875L42.3349 38.2227C42.5427 38.2518 42.7141 38.3959 42.7798 38.5946C42.8454 38.7934 42.7907 39.0122 42.6394 39.158L41.4088 40.3432L41.7077 42.0261C41.7442 42.2321 41.6603 42.4418 41.4908 42.5639C41.3212 42.6879 41.097 42.7025 40.9128 42.6041L39.4051 41.8L37.8973 42.6041C37.8171 42.6478 37.7278 42.6679 37.6402 42.6679H37.6366ZM39.4014 40.6331C39.4907 40.6331 39.5782 40.6549 39.6584 40.6969L40.4314 41.1089L40.2783 40.2465C40.2473 40.0678 40.3056 39.8837 40.4369 39.7578L41.0677 39.1507L40.1999 39.0303C40.0194 39.0048 39.8626 38.8918 39.7842 38.7277L39.4014 37.94L39.0185 38.7277C38.9383 38.8918 38.7833 39.0048 38.6028 39.0303L37.735 39.1507L38.3658 39.7578C38.4971 39.8837 38.5572 40.0678 38.5244 40.2465L38.3713 41.1089L39.1443 40.6969C39.2245 40.6531 39.312 40.6331 39.4014 40.6331Z" fill="#7A3DE2"/>
<path fill-rule="evenodd" clip-rule="evenodd" d="M23.3323 46.6665C19.3268 46.6665 15.376 45.6327 11.9049 43.6799C11.7664 43.6015 11.6679 43.4666 11.6369 43.3116C11.6059 43.1567 11.6442 42.9944 11.7409 42.8686C12.2021 42.2742 12.5339 41.6014 12.7308 40.8684C13.5385 37.8527 11.7427 34.7421 8.72901 33.9346C7.03531 33.4824 5.18114 33.858 3.79944 34.9265C3.67364 35.0231 3.5132 35.0614 3.35641 35.0286C3.20144 34.9976 3.06653 34.8991 2.98813 34.7606C1.03371 31.289 0 27.3362 0 23.3323C0 19.3284 1.03189 15.3754 2.98631 11.9041C3.06471 11.7655 3.1978 11.667 3.35459 11.636C3.51138 11.605 3.67182 11.6433 3.79762 11.74C4.39195 12.1994 5.06469 12.5331 5.79764 12.73C6.27893 12.8595 6.773 12.9251 7.26708 12.9251C9.82134 12.9251 12.0692 11.1985 12.7311 8.72787C13.1923 7.00668 12.8313 5.20889 11.7393 3.79791C11.6426 3.6721 11.6044 3.50983 11.6372 3.35485C11.6682 3.19987 11.7666 3.06495 11.9052 2.98654C15.3765 1.03197 19.329 0 23.3325 0C27.3361 0 31.2889 1.03379 34.7599 2.98654C34.8985 3.06495 34.9969 3.19804 35.0279 3.35485C35.0589 3.50983 35.0206 3.6721 34.924 3.79791C34.4627 4.39229 34.1309 5.06508 33.934 5.79809C33.5439 7.25855 33.7426 8.78463 34.4992 10.0938C35.2558 11.4029 36.4755 12.3401 37.9377 12.7321C39.6314 13.1861 41.4855 12.8086 42.8672 11.7402C42.993 11.6435 43.1553 11.6053 43.3103 11.6381C43.4652 11.6691 43.6001 11.7675 43.6785 11.9061C45.633 15.3777 46.6667 19.3305 46.6667 23.3344C46.6667 27.3401 45.633 31.2913 43.6804 34.7626C43.602 34.9012 43.467 34.9996 43.3121 35.0306C43.1553 35.0635 42.9948 35.0252 42.8691 34.9267C42.2747 34.4654 41.602 34.1336 40.869 33.9367C40.3877 33.8072 39.8937 33.7416 39.3996 33.7416C36.8453 33.7416 34.5974 35.4682 33.9356 37.9388C33.4743 39.66 33.8353 41.4578 34.9274 42.8688C35.024 42.9946 35.0623 43.1568 35.0295 43.3118C34.9985 43.4668 34.9001 43.6017 34.7615 43.6801C31.2902 45.6347 27.3377 46.6667 23.3341 46.6667L23.3323 46.6665ZM12.9733 43.0162C16.1492 44.69 19.7189 45.5725 23.3323 45.5725C26.9457 45.5725 30.5157 44.6901 33.6932 43.0144C32.6813 41.4208 32.3823 39.501 32.8764 37.6541C33.6658 34.7058 36.3477 32.6457 39.398 32.6457C39.9869 32.6457 40.5776 32.7241 41.1501 32.8773C41.8155 33.056 42.4408 33.3295 43.0152 33.6923C44.6888 30.5161 45.5712 26.9462 45.5712 23.3325C45.5712 19.7169 44.6888 16.1485 43.0133 12.9689C41.4381 13.9626 39.4655 14.2708 37.6534 13.7857C35.9105 13.319 34.4538 12.2013 33.5513 10.6387C32.6488 9.07614 32.41 7.25469 32.8767 5.51366C33.0554 4.84814 33.3289 4.22277 33.6917 3.64842C30.5139 1.97465 26.9461 1.09214 23.3327 1.09214C19.7193 1.09214 16.1493 1.9746 12.9718 3.65024C13.9837 5.24382 14.2826 7.16371 13.7886 9.01056C12.9991 11.9588 10.3173 14.0189 7.26884 14.0189C6.67997 14.0189 6.08928 13.9405 5.51679 13.7874C4.85133 13.6087 4.22601 13.3352 3.6517 12.9724C1.97806 16.1486 1.09562 19.7185 1.09562 23.3322C1.09562 26.9478 1.97801 30.5162 3.65352 33.6958C5.22872 32.7021 7.19958 32.3921 9.01342 32.8789C12.6123 33.8434 14.7546 37.554 13.7899 41.1532C13.6112 41.8188 13.3378 42.4441 12.975 43.0185L12.9733 43.0162Z" fill="#7A3DE2"/>
<path fill-rule="evenodd" clip-rule="evenodd" d="M39.4055 14.0197C38.8166 14.0197 38.2278 13.9413 37.6535 13.7881C35.9105 13.3213 34.4538 12.2037 33.5513 10.6411C32.6489 9.07849 32.41 7.25704 32.8768 5.51601C33.6662 2.56592 36.3481 0.507629 39.3984 0.507629C39.9872 0.507629 40.5779 0.586032 41.1504 0.739186C42.8934 1.20595 44.3501 2.32362 45.2525 3.8862C46.155 5.44879 46.3938 7.27024 45.9271 9.01127C45.1377 11.9595 42.4558 14.0197 39.4055 14.0197ZM39.3982 1.59953C36.844 1.59953 34.596 3.32618 33.9342 5.79676C33.5423 7.25722 33.7428 8.78331 34.4994 10.0924C35.256 11.4016 36.4757 12.3387 37.9379 12.7307C38.4192 12.8602 38.9132 12.9258 39.4073 12.9258C41.9634 12.9258 44.2095 11.1992 44.8713 8.72859C45.2633 7.26813 45.0627 5.74204 44.3061 4.43291C43.5513 3.12378 42.3298 2.18661 40.8677 1.79462C40.3864 1.66517 39.8923 1.59953 39.3982 1.59953Z" fill="#7A3DE2"/>
<path fill-rule="evenodd" clip-rule="evenodd" d="M7.26675 46.1592C6.67788 46.1592 6.08901 46.0808 5.5147 45.9277C1.91763 44.9631 -0.226517 41.2507 0.73821 37.6533C1.52763 34.7051 4.2095 32.645 7.2598 32.645C7.84867 32.645 8.43754 32.7234 9.01185 32.8765C12.6089 33.841 14.7531 37.5516 13.7883 41.1508C12.9989 44.1009 10.3171 46.1592 7.26675 46.1592ZM7.25946 33.7391C4.7052 33.7391 2.4573 35.4657 1.79548 37.9363C0.987804 40.952 2.78363 44.0626 5.79911 44.8701C6.2804 44.9996 6.77448 45.0652 7.26856 45.0652C9.82464 45.0652 12.0707 43.3386 12.7325 40.8661C13.5402 37.8504 11.7444 34.7399 8.72891 33.9324C8.24762 33.8029 7.75354 33.7373 7.25946 33.7373V33.7391Z" fill="#7A3DE2"/>
<path fill-rule="evenodd" clip-rule="evenodd" d="M34.3332 29.8682H12.3311C12.0285 29.8682 11.7842 29.622 11.7842 29.3212V15.5843C11.7842 14.2551 12.8653 13.1739 14.1944 13.1739H19.6038C19.7825 13.1739 19.9502 13.2614 20.0523 13.4091C20.1544 13.5568 20.1781 13.7446 20.1161 13.9123L20.0213 14.1676L22.4844 16.6308L27.7313 14.6763L27.1643 14.1092C27.0075 13.9524 26.962 13.7172 27.0458 13.513C27.1297 13.3088 27.3302 13.1757 27.5508 13.1757H32.4659C33.795 13.1757 34.878 14.2569 34.878 15.5861V29.323C34.878 29.6257 34.6337 29.87 34.331 29.87L34.3332 29.8682ZM12.8781 28.7742H33.7861V15.5844C33.7861 14.8587 33.1955 14.2661 32.468 14.2661H28.8728L29.1098 14.5013C29.241 14.6326 29.2976 14.8222 29.2575 15.0045C29.2173 15.1869 29.0879 15.3364 28.9147 15.4002L22.5392 17.7759C22.3368 17.8489 22.1126 17.8015 21.9612 17.6501L19.0004 14.6891C18.8874 14.576 18.8309 14.421 18.8418 14.2661H14.1964C13.4708 14.2661 12.8783 14.8568 12.8783 15.5843L12.8781 28.7742Z" fill="#7A3DE2"/>
<path fill-rule="evenodd" clip-rule="evenodd" d="M32.0547 27.5884H14.6088C14.3062 27.5884 14.0619 27.3422 14.0619 27.0414V15.9977C14.0619 15.6951 14.3062 15.4507 14.6088 15.4507H17.6918C17.9124 15.4507 18.113 15.5838 18.1968 15.7881C18.2807 15.9923 18.2351 16.2275 18.0783 16.3843L17.3527 17.1099C17.092 17.3707 17.092 17.7955 17.3527 18.058L18.5815 19.2887C18.8386 19.5458 19.2925 19.5458 19.5496 19.2887L21.9598 16.8783C22.0145 16.8236 22.082 16.7799 22.1549 16.7525L25.5532 15.4872C25.6134 15.4635 25.679 15.4525 25.7447 15.4525H32.053C32.3556 15.4525 32.5999 15.6968 32.5999 15.9995V27.0413C32.5999 27.344 32.3556 27.5883 32.053 27.5883L32.0547 27.5884ZM15.1559 26.4944H31.5077V16.5448H25.8449L22.6507 17.7355L20.3243 20.062C19.9888 20.3975 19.544 20.5816 19.0663 20.5816C18.5905 20.5816 18.1438 20.3975 17.8084 20.062L16.5777 18.8313C15.9561 18.2096 15.8977 17.2341 16.3991 16.5449H15.1538V26.4944L15.1559 26.4944Z" fill="#7A3DE2"/>
<path fill-rule="evenodd" clip-rule="evenodd" d="M34.1762 33.492H12.4878C11.1879 33.492 10.1305 32.4345 10.1305 31.1327V29.3203C10.1305 29.0176 10.3748 28.7733 10.6775 28.7733H35.9881C36.2907 28.7733 36.5351 29.0195 36.5351 29.3203V31.1327C36.5351 32.4327 35.4776 33.4902 34.1777 33.4902L34.1762 33.492ZM11.2244 29.8691V31.1327C11.2244 31.831 11.7914 32.3962 12.4897 32.3962H34.1762C34.8726 32.3962 35.4396 31.8292 35.4396 31.1327V29.8691H11.2225H11.2244Z" fill="#7A3DE2"/>
<path fill-rule="evenodd" clip-rule="evenodd" d="M37.7205 10.7208C36.8782 10.7208 36.2127 10.0589 36.2073 9.21292V5.31652C36.2146 4.46686 36.8782 3.80499 37.7187 3.80499C37.983 3.80499 38.2456 3.87428 38.4735 4.00738L41.8427 5.95285C42.3094 6.22088 42.5975 6.72408 42.5975 7.26198C42.5975 7.80166 42.3076 8.3031 41.8427 8.57112L38.4735 10.5166C38.2456 10.6479 37.9849 10.719 37.7223 10.719L37.7205 10.7208ZM37.7169 4.90072C37.4853 4.90072 37.3012 5.0867 37.2994 5.32373V9.20916C37.303 9.57565 37.6822 9.71238 37.9247 9.572L41.2939 7.62653C41.4215 7.55177 41.5017 7.4132 41.5017 7.26369C41.5017 7.11418 41.4215 6.97561 41.2939 6.90086L37.9247 4.95538C37.8609 4.91892 37.7916 4.90072 37.7169 4.90072Z" fill="#7A3DE2"/>
<path fill-rule="evenodd" clip-rule="evenodd" d="M7.26292 14.0064C3.54365 14.0064 0.519165 10.9797 0.519165 7.26216C0.519165 3.54261 3.54561 0.517883 7.26292 0.517883C10.9822 0.517883 14.0067 3.54457 14.0067 7.26216C14.0067 10.9817 10.9802 14.0064 7.26292 14.0064ZM7.26292 1.60964C4.14713 1.60964 1.61131 4.14403 1.61131 7.26169C1.61131 10.3777 4.1455 12.9137 7.26292 12.9137C10.3787 12.9137 12.9145 10.3793 12.9145 7.26169C12.9145 4.14567 10.3785 1.60964 7.26292 1.60964Z" fill="#7A3DE2"/>
<path fill-rule="evenodd" clip-rule="evenodd" d="M7.26288 14.0056C5.39051 14.0056 3.6512 13.2562 2.36411 11.8961C2.17085 11.6919 2.16356 11.3764 2.34587 11.1631C3.58014 9.72639 5.37232 8.90222 7.26285 8.90222C9.15347 8.90222 10.9456 9.72634 12.178 11.1631C12.3603 11.3765 12.353 11.6919 12.1597 11.8961C10.8726 13.2563 9.13328 14.0056 7.26096 14.0056H7.26288ZM3.52906 11.5041C4.56095 12.4157 5.86816 12.9116 7.26288 12.9116C8.6576 12.9116 9.96481 12.4157 10.9967 11.5041C9.99763 10.5414 8.66306 9.998 7.26288 9.998C5.8627 9.998 4.52814 10.5414 3.52906 11.5041Z" fill="#7A3DE2"/>
<path fill-rule="evenodd" clip-rule="evenodd" d="M7.26296 9.99721C5.66768 9.99721 4.3678 8.69905 4.3678 7.10365C4.3678 5.50825 5.66586 4.21008 7.26296 4.21008C8.85823 4.21008 10.1563 5.50825 10.1563 7.10365C10.1563 8.69905 8.85823 9.99721 7.26296 9.99721ZM7.26296 5.30203C6.26934 5.30203 5.46167 6.10977 5.46167 7.10164C5.46167 8.09351 6.26934 8.90125 7.26296 8.90125C8.25475 8.90125 9.06243 8.09351 9.06243 7.10164C9.06243 6.10977 8.25475 5.30203 7.26296 5.30203Z" fill="#7A3DE2"/>
<path fill-rule="evenodd" clip-rule="evenodd" d="M4.82896 42.3862C4.68858 42.3862 4.55001 42.3333 4.44245 42.2257C4.22914 42.0124 4.22914 41.666 4.44245 41.4527L9.31229 36.5843C9.5256 36.371 9.87199 36.371 10.0853 36.5843C10.2986 36.7976 10.2986 37.1441 10.0853 37.3574L5.21545 42.2257C5.10788 42.3333 4.96934 42.3862 4.82896 42.3862Z" fill="#7A3DE2"/>
<path fill-rule="evenodd" clip-rule="evenodd" d="M9.14285 40.9479C9.14285 41.9197 7.68433 41.9197 7.68433 40.9479C7.68433 39.9761 9.14285 39.9761 9.14285 40.9479Z" fill="#7A3DE2"/>
<path fill-rule="evenodd" clip-rule="evenodd" d="M6.55581 38.1494C6.55581 39.1212 5.09729 39.1212 5.09729 38.1494C5.09729 37.1758 6.55581 37.1758 6.55581 38.1494Z" fill="#7A3DE2"/>
<path fill-rule="evenodd" clip-rule="evenodd" d="M19.0679 20.5841C18.5921 20.5841 18.1454 20.4 17.81 20.0645L16.5794 18.8338C15.892 18.1464 15.892 17.0269 16.5794 16.3395L19.0005 13.9181C19.2065 13.7121 19.5694 13.7121 19.7735 13.9181L22.7343 16.8792C22.9476 17.0925 22.9476 17.4389 22.7343 17.6523L20.3241 20.0627C19.9886 20.3982 19.5438 20.5823 19.0661 20.5823L19.0679 20.5841ZM19.387 15.0796L17.3523 17.1126C17.0916 17.3733 17.0916 17.7982 17.3523 18.0607L18.5811 19.2914C18.8382 19.5485 19.2922 19.5485 19.5492 19.2914L21.5729 17.2675L19.3851 15.0796H19.387Z" fill="#7A3DE2"/>
<path fill-rule="evenodd" clip-rule="evenodd" d="M22.3479 17.8076C22.2057 17.8076 22.0653 17.7511 21.9614 17.6472L19.0006 14.6861C18.8492 14.5348 18.8 14.3087 18.8748 14.1081L21.2503 7.73397C21.3159 7.55893 21.4636 7.42948 21.6459 7.39118C21.8283 7.35289 22.0179 7.40759 22.1491 7.53887L29.1099 14.5002C29.2412 14.6315 29.2977 14.8211 29.2576 15.0034C29.2175 15.1857 29.088 15.3353 28.9148 15.3991L22.5412 17.7748C22.4792 17.7985 22.4154 17.8095 22.3498 17.8095L22.3479 17.8076ZM20.0215 14.161L22.4846 16.6243L27.7316 14.6697L21.9759 8.91355L20.0215 14.161Z" fill="#7A3DE2"/>
<path fill-rule="evenodd" clip-rule="evenodd" d="M26.6922 13.4032C26.5464 13.4032 26.4078 13.3467 26.3057 13.2428L23.4051 10.342C23.3012 10.238 23.2428 10.0976 23.2447 9.95177C23.2465 9.8059 23.3048 9.66551 23.4106 9.5634C23.8974 9.09118 24.5409 8.83044 25.2191 8.83044C25.9138 8.83044 26.5665 9.10029 27.0569 9.59076C28.0541 10.5881 28.0669 12.2254 27.0842 13.2374C26.9821 13.3431 26.8418 13.4033 26.6959 13.4033L26.6922 13.4032ZM24.6448 10.0356L26.6084 11.9993C26.8308 11.4541 26.7214 10.8014 26.282 10.362C25.8572 9.93717 25.1845 9.81136 24.6448 10.0338L24.6448 10.0356Z" fill="#7A3DE2"/>
<path fill-rule="evenodd" clip-rule="evenodd" d="M24.5449 23.1153C24.4446 23.1153 24.3443 23.0879 24.2532 23.0314L19.6461 20.1379C19.5057 20.0503 19.4127 19.9008 19.3926 19.7367C19.3744 19.5708 19.4309 19.4067 19.5494 19.2882L21.3781 17.4576C21.5586 17.2771 21.8393 17.2443 22.0563 17.381L26.6634 20.2746C26.8038 20.3621 26.8968 20.5116 26.915 20.6757C26.9332 20.8416 26.8767 21.0057 26.7582 21.1242L24.9277 22.9548C24.822 23.0606 24.6816 23.1153 24.5412 23.1153H24.5449ZM20.8111 19.5781L24.4683 21.8737L25.5039 20.838L21.8466 18.5425L20.8111 19.5781Z" fill="#7A3DE2"/>
<path fill-rule="evenodd" clip-rule="evenodd" d="M27.8045 9.48964C27.6642 9.48964 27.5238 9.43676 27.418 9.32919C27.2047 9.11586 27.2047 8.76944 27.418 8.55613L29.1938 6.78023C29.4071 6.56691 29.7535 6.56691 29.9668 6.78023C30.1801 6.99356 30.1801 7.33998 29.9668 7.55329L28.191 9.32919C28.0853 9.43676 27.9449 9.48964 27.8045 9.48964Z" fill="#7A3DE2"/>
<path fill-rule="evenodd" clip-rule="evenodd" d="M26.6616 8.34478C26.3589 8.34478 26.1146 8.10046 26.1146 7.79778V5.28528C26.1146 4.98261 26.3607 4.73828 26.6616 4.73828C26.9624 4.73828 27.2085 4.9826 27.2085 5.28528V7.79778C27.2085 8.10045 26.9624 8.34478 26.6616 8.34478Z" fill="#7A3DE2"/>
<path fill-rule="evenodd" clip-rule="evenodd" d="M31.4581 10.6321H28.9458C28.6431 10.6321 28.3988 10.3878 28.3988 10.0851C28.3988 9.78242 28.6449 9.53809 28.9458 9.53809H31.4581C31.7607 9.53809 32.005 9.78241 32.005 10.0851C32.005 10.3878 31.7607 10.6321 31.4581 10.6321Z" fill="#7A3DE2"/>
<path fill-rule="evenodd" clip-rule="evenodd" d="M22.8983 23.9445H18.8983C18.5956 23.9445 18.3513 23.6983 18.3513 23.3975C18.3513 23.0948 18.5956 22.8505 18.8983 22.8505H22.8983C23.2009 22.8505 23.4452 23.0948 23.4452 23.3975C23.4452 23.7001 23.2009 23.9445 22.8983 23.9445ZM17.0259 23.9445H16.2766C15.9739 23.9445 15.7296 23.6983 15.7296 23.3975C15.7296 23.0948 15.9739 22.8505 16.2766 22.8505H17.0259C17.3285 22.8505 17.5729 23.0948 17.5729 23.3975C17.5729 23.7001 17.3286 23.9445 17.0259 23.9445Z" fill="#7A3DE2"/>
<path fill-rule="evenodd" clip-rule="evenodd" d="M22.8984 25.9649H22.1509C21.8482 25.9649 21.6039 25.7188 21.6039 25.4179C21.6039 25.1171 21.8482 24.8709 22.1509 24.8709H22.8984C23.2011 24.8709 23.4454 25.1171 23.4454 25.4179C23.4454 25.7188 23.2011 25.9649 22.8984 25.9649ZM20.2785 25.9649H16.2785C15.9759 25.9649 15.7316 25.7188 15.7316 25.4179C15.7316 25.1171 15.9759 24.8709 16.2785 24.8709H20.2785C20.5812 24.8709 20.8255 25.1171 20.8255 25.4179C20.8255 25.7188 20.5812 25.9649 20.2785 25.9649Z" fill="#7A3DE2"/>
</svg>
