<svg width="47" height="47" viewBox="0 0 47 47" fill="none" xmlns="http://www.w3.org/2000/svg">
<path fill-rule="evenodd" clip-rule="evenodd" d="M12.0569 5.31736C15.7806 5.31736 18.7984 8.33498 18.7984 12.0587C18.7984 15.7822 15.7807 18.8 12.0569 18.8C8.33323 18.8 5.31534 15.7823 5.31534 12.0587C5.31534 8.33513 8.33308 5.31736 12.0569 5.31736ZM26.0435 26.1115C26.0435 26.5448 25.6925 26.8958 25.2591 26.8958C24.8258 26.8958 24.4748 26.5448 24.4748 26.1115V24.7566C24.4748 23.3252 25.6356 22.1644 27.0671 22.1644H35.8617C36.4264 22.1644 36.8853 21.7056 36.8853 21.1409V19.786C36.8853 19.3527 37.2363 19.0017 37.6696 19.0017C38.103 19.0017 38.4539 19.3527 38.4539 19.786V21.1409C38.4539 22.5723 37.2931 23.733 35.8617 23.733H27.0671C26.5023 23.733 26.0435 24.1919 26.0435 24.7566V26.1115ZM12.1608 29.0703C11.7275 29.0703 11.3765 28.7193 11.3765 28.286C11.3765 27.8526 11.7275 27.5016 12.1608 27.5016H15.1217C15.555 27.5016 15.906 27.8526 15.906 28.286C15.906 28.7193 15.555 29.0703 15.1217 29.0703H12.1608ZM18.0826 29.0703C17.6493 29.0703 17.2983 28.7193 17.2983 28.286C17.2983 27.8526 17.6493 27.5016 18.0826 27.5016H21.0435C21.4768 27.5016 21.8278 27.8526 21.8278 28.286C21.8278 28.7193 21.4768 29.0703 21.0435 29.0703H18.0826ZM24.0044 29.0703C23.5711 29.0703 23.2201 28.7193 23.2201 28.286C23.2201 27.8526 23.5711 27.5016 24.0044 27.5016H26.9653C27.3986 27.5016 27.7496 27.8526 27.7496 28.286C27.7496 28.7193 27.3986 29.0703 26.9653 29.0703H24.0044ZM29.9283 29.0703C29.4949 29.0703 29.1439 28.7193 29.1439 28.286C29.1439 27.8526 29.4949 27.5016 29.9283 27.5016H32.8891C33.3225 27.5016 33.6735 27.8526 33.6735 28.286C33.6735 28.7193 33.3225 29.0703 32.8891 29.0703H29.9283ZM35.8501 29.0703C35.4167 29.0703 35.0658 28.7193 35.0658 28.286C35.0658 27.8526 35.4167 27.5016 35.8501 27.5016H38.811C39.2443 27.5016 39.5953 27.8526 39.5953 28.286C39.5953 28.7193 39.2443 29.0703 38.811 29.0703H35.8501ZM35.2148 11.9234H40.1247C40.5581 11.9234 40.9091 12.2744 40.9091 12.7077V17.6116C40.9091 18.0449 40.5581 18.3959 40.1247 18.3959H35.2148C34.7814 18.3959 34.4305 18.0449 34.4305 17.6116V12.7077C34.4305 12.2744 34.7814 11.9234 35.2148 11.9234ZM39.3404 13.492H35.9992V16.8273H39.3404V13.492ZM19.3713 6.40586L20.2595 5.51764C19.7713 4.90586 19.2065 4.34316 18.5967 3.85491L17.632 4.81962C17.3673 5.08628 16.9574 5.12158 16.6555 4.9255C15.7927 4.37059 14.8515 3.97846 13.8535 3.76277C13.4868 3.68434 13.2338 3.35885 13.2358 2.99613V1.6314C12.4573 1.54513 11.6651 1.54513 10.8847 1.6314V2.99808C10.8847 3.38632 10.6024 3.7079 10.2337 3.77065C9.30425 3.953 8.2611 4.40984 7.46109 4.92164C7.1454 5.12359 6.7395 5.07066 6.4846 4.81575H6.48264L5.51789 3.85104C4.90809 4.33928 4.34136 4.90596 3.85509 5.51182L4.8218 6.48045C5.10024 6.75888 5.12573 7.19222 4.90023 7.50002C4.63159 7.92159 4.40414 8.36078 4.21784 8.81179C4.02372 9.28041 3.87274 9.76471 3.76489 10.2608C3.68646 10.6275 3.36096 10.8804 2.99822 10.8785H1.63345C1.54717 11.6569 1.54717 12.451 1.63345 13.2275H2.99822C3.38647 13.2275 3.70807 13.5098 3.77081 13.8785C3.95121 14.8 4.41395 15.851 4.92576 16.649C5.13361 16.9745 5.07283 17.3961 4.79635 17.649L3.85318 18.5921C4.33947 19.2 4.90814 19.7666 5.51794 20.2549L6.48269 19.2902C6.76113 19.0117 7.19449 18.9862 7.5023 19.2117C7.83173 19.4372 8.46901 19.7509 8.80825 19.8902C9.27297 20.0823 9.7612 20.2353 10.2651 20.3431C10.6318 20.4215 10.8848 20.747 10.8828 21.1098V22.4764C11.6613 22.5627 12.4535 22.5627 13.2339 22.4764V21.1117C13.2339 20.7235 13.5162 20.4019 13.8849 20.3391C14.8065 20.1588 15.8575 19.696 16.6555 19.1842C16.9712 18.9823 17.3771 19.0352 17.632 19.2901V19.2882L18.5988 20.2568C19.2046 19.7705 19.7713 19.2038 20.2596 18.5941L19.2948 17.6293C19.0164 17.3509 18.9909 16.9176 19.2164 16.6098C19.4831 16.1902 19.7105 15.7529 19.8949 15.3039C20.087 14.8392 20.24 14.351 20.3478 13.847C20.4263 13.4804 20.7518 13.2274 21.1145 13.2294H22.4812C22.5675 12.4509 22.5675 11.6588 22.4812 10.8804H21.1145C20.7263 10.8804 20.4047 10.598 20.3419 10.2294C20.1615 9.30588 19.685 8.22938 19.1909 7.45687C18.9889 7.14118 19.0419 6.7353 19.2968 6.48041L19.2948 6.47845L19.3732 6.40002L19.3713 6.40586ZM21.8243 6.17253C22.1341 5.86272 22.1635 5.44509 21.9067 5.10391C21.5066 4.53921 21.0635 4.01371 20.5831 3.53137C20.0909 3.03922 19.5517 2.58629 18.9733 2.1804C18.6478 1.95099 18.2046 2.00589 17.9438 2.29413L16.9555 3.28238C16.2731 2.90003 15.5496 2.60002 14.8005 2.38629V0.952947C14.8005 0.554909 14.5044 0.22551 14.1201 0.176468C13.4358 0.0588195 12.7455 0 12.0573 0C11.3573 0 10.6572 0.0607821 9.96308 0.182351C9.58267 0.249016 9.31402 0.580389 9.31402 0.954915V2.39021C8.56889 2.60198 7.83947 2.90392 7.16099 3.28234L6.14725 2.26864C5.86097 1.98237 5.41196 1.96472 5.10409 2.20981C4.53937 2.60981 4.01385 3.05295 3.5315 3.53333C3.04521 4.0196 2.59225 4.56078 2.18048 5.14702C1.96086 5.46271 2.00596 5.8843 2.26872 6.14702L2.26676 6.14898L3.2805 7.16464C2.89813 7.84701 2.60007 8.57053 2.38638 9.31759H0.952983C0.55493 9.31759 0.225518 9.61367 0.176475 9.998C0.0588216 10.6804 0 11.3725 0 12.0607C0 12.7607 0.0607844 13.4608 0.182358 14.1549C0.249026 14.5352 0.580411 14.8039 0.954951 14.8039H2.38835C2.60208 15.5529 2.90207 16.2745 3.28447 16.9588L2.26877 17.9745C1.98641 18.2568 1.96681 18.7019 2.20799 19.0078C2.61193 19.5803 3.05703 20.1078 3.53351 20.5862C3.78058 20.8333 4.0394 21.0705 4.30806 21.296V34.6707C4.30806 35.8805 5.30418 36.8746 6.51008 36.8746H19.5715C19.3441 38.3471 18.8441 39.7118 17.9715 40.902H14.7753C12.8046 40.902 11.1909 42.5177 11.1909 44.4843V45.8824C11.1909 46.3157 11.5419 46.6667 11.9752 46.6667H38.9976C39.431 46.6667 39.782 46.3157 39.782 45.8824V44.4843C39.782 42.5137 38.1662 40.902 36.1995 40.902H33.0033C32.1307 39.7098 31.6307 38.3471 31.4033 36.8746H44.4627C45.6765 36.8746 46.6667 35.8844 46.6667 34.6707V8.37662C46.6667 7.16881 45.6745 6.17273 44.4627 6.17273L21.8243 6.17253ZM5.875 22.0254V34.6687C5.875 35.0177 6.15736 35.304 6.50834 35.304H44.4623C44.8094 35.304 45.0976 35.0157 45.0976 34.6687V8.37662C45.0976 8.02369 44.8113 7.74135 44.4623 7.74135H21.1319L21.5123 8.65506H43.3995C43.8329 8.65506 44.1839 9.00604 44.1839 9.43937V32.0706C44.1839 32.504 43.8329 32.8549 43.3995 32.8549H7.57294C7.13959 32.8549 6.7886 32.504 6.7886 32.0706V21.2078L6.14547 21.8509C6.06703 21.9293 5.97488 21.9881 5.87487 22.0273L5.875 22.0254ZM12.0573 6.88631C9.20039 6.88631 6.88447 9.20199 6.88447 12.059C6.88447 14.9158 9.20024 17.2317 12.0573 17.2317C14.9143 17.2317 17.2302 14.916 17.2302 12.059C17.2302 9.20214 14.9144 6.88631 12.0573 6.88631ZM23.9753 10.2235C24.1871 11.6137 24.1498 12.7392 23.938 14.1215C23.887 14.5058 23.5576 14.8019 23.1615 14.8019H21.7262C21.5144 15.547 21.2124 16.2764 20.834 16.9549L21.8477 17.9686C22.1125 18.2333 22.1576 18.6568 21.934 18.9725C21.5281 19.5529 21.0752 20.0902 20.583 20.5823C20.1124 21.0529 19.5928 21.4901 19.03 21.8901C18.7221 22.1529 18.2593 22.1392 17.9672 21.847L16.9535 20.8313C16.2711 21.2137 15.5475 21.5137 14.8004 21.7254V23.1588C14.8004 23.5333 14.5318 23.8646 14.1514 23.9313C13.4572 24.0529 12.7572 24.1137 12.0572 24.1137C11.3689 24.1137 10.6767 24.0549 9.99435 23.9372C9.61002 23.8862 9.31392 23.5568 9.31392 23.1607V21.7254C8.99235 21.6333 8.67275 21.5254 8.35705 21.3999V31.284H42.615V10.2233L23.9753 10.2235ZM32.6188 42.4683H36.1993C37.3111 42.4683 38.2131 43.3742 38.2131 44.482V45.0957L12.7574 45.0977V44.484C12.7574 43.3702 13.6652 42.4703 14.7731 42.4703H32.6189L32.6188 42.4683ZM29.8187 36.8725C30.0148 38.3058 30.4345 39.6646 31.1403 40.8999H19.8323C20.5382 39.6646 20.9578 38.3058 21.1539 36.8725H29.8187Z" fill="#7A3DE2"/>
</svg>
